<svg xmlns="http://www.w3.org/2000/svg" width="53" height="54" viewBox="0 0 53 54">
  <g id="Group_630" data-name="Group 630" transform="translate(-40 -91)">
    <rect id="Rectangle_576" data-name="Rectangle 576" width="53" height="54" rx="15" transform="translate(40 91)" fill="#2a1e5c"/>
    <path id="Icon_awesome-info" data-name="Icon awesome-info" d="M1.094,23.2H2.188V15.3H1.094A1.094,1.094,0,0,1,0,14.206V11.594A1.094,1.094,0,0,1,1.094,10.5H7.219a1.094,1.094,0,0,1,1.094,1.094V23.2H9.406A1.094,1.094,0,0,1,10.5,24.294v2.612A1.094,1.094,0,0,1,9.406,28H1.094A1.094,1.094,0,0,1,0,26.906V24.294A1.094,1.094,0,0,1,1.094,23.2ZM5.25,0A3.938,3.938,0,1,0,9.188,3.938,3.937,3.937,0,0,0,5.25,0Z" transform="translate(61 104)" fill="#fff"/>
  </g>
</svg>
