<svg width="116" height="116" viewBox="0 0 116 116" fill="none" xmlns="http://www.w3.org/2000/svg">
    <circle cx="58" cy="58" r="58" fill="#8CB2A5"/>
    <path opacity="0.15" d="M31.75 89.3555C31.75 89.6427 32.429 89.9272 33.7482 90.1926C35.0673 90.458 37.0009 90.6991 39.4384 90.9023C41.876 91.1054 44.7698 91.2665 47.9546 91.3765C51.1394 91.4864 54.5528 91.543 58 91.543C61.4472 91.543 64.8606 91.4864 68.0454 91.3765C71.2302 91.2665 74.124 91.1054 76.5616 90.9023C78.9991 90.6991 80.9327 90.458 82.2518 90.1926C83.571 89.9272 84.25 89.6427 84.25 89.3555C84.25 89.0682 83.571 88.7837 82.2518 88.5184C80.9327 88.253 78.9991 88.0118 76.5616 87.8087C74.124 87.6055 71.2302 87.4444 68.0454 87.3345C64.8606 87.2246 61.4472 87.168 58 87.168C54.5528 87.168 51.1394 87.2246 47.9546 87.3345C44.7698 87.4444 41.876 87.6055 39.4384 87.8087C37.0009 88.0118 35.0673 88.253 33.7482 88.5184C32.429 88.7837 31.75 89.0682 31.75 89.3555Z" fill="#45413C"/>
    <path d="M75.5 66.5039L73.4875 78.1706C72.0537 75.2851 69.8431 72.8571 67.1043 71.1597C64.3656 69.4624 61.2075 68.5631 57.9854 68.5631C54.7634 68.5631 51.6053 69.4624 48.8665 71.1597C46.1278 72.8571 43.9171 75.2851 42.4833 78.1706L40.4708 66.5039L33.2812 67.2622L34.9875 83.5081C35.1353 84.9133 35.7983 86.2141 36.8486 87.1593C37.8988 88.1046 39.262 88.6274 40.675 88.6268H75.325C76.738 88.6274 78.1012 88.1046 79.1514 87.1593C80.2017 86.2141 80.8647 84.9133 81.0125 83.5081L82.7042 67.2622L75.5 66.5039Z" fill="#00B8F0"/>
    <path d="M33.2959 67.2622L33.6605 70.7622L41.098 69.9893L40.4855 66.5039L33.2959 67.2622Z" fill="#009FD9"/>
    <path d="M75.5148 66.5039L74.9023 69.9893L82.3398 70.7622L82.7044 67.2622L75.5148 66.5039Z" fill="#009FD9"/>
    <path d="M58.0001 68.5312C54.7781 68.5332 51.6205 69.4336 48.882 71.1313C46.1436 72.829 43.9328 75.2567 42.498 78.1417L42.9939 80.7667C44.5081 78.1244 46.6932 75.9287 49.3282 74.4018C51.9632 72.8749 54.9547 72.0707 58.0001 72.0707C61.0456 72.0707 64.037 72.8749 66.672 74.4018C69.307 75.9287 71.4921 78.1244 73.0064 80.7667L73.5022 78.1417C72.0675 75.2567 69.8567 72.829 67.1182 71.1313C64.3798 69.4336 61.2221 68.5332 58.0001 68.5312Z" fill="#009FD9"/>
    <path d="M75.5 66.5039L73.4875 78.1706C72.0537 75.2851 69.8431 72.8571 67.1043 71.1597C64.3656 69.4624 61.2075 68.5631 57.9854 68.5631C54.7634 68.5631 51.6053 69.4624 48.8665 71.1597C46.1278 72.8571 43.9171 75.2851 42.4833 78.1706L40.4708 66.5039L33.2812 67.2622L34.9875 83.5081C35.1353 84.9133 35.7983 86.2141 36.8486 87.1593C37.8988 88.1046 39.262 88.6274 40.675 88.6268H75.325C76.738 88.6274 78.1012 88.1046 79.1514 87.1593C80.2017 86.2141 80.8647 84.9133 81.0125 83.5081L82.7042 67.2622L75.5 66.5039Z" stroke="#45413C" stroke-width="0.5" stroke-linecap="round" stroke-linejoin="round"/>
    <path d="M54.2959 62.625H61.7188V74.2042H54.2959V62.625Z" fill="#FFE500"/>
    <path d="M58.0001 62.625C57.0177 62.625 56.0755 63.0153 55.3808 63.7099C54.6862 64.4046 54.2959 65.3468 54.2959 66.3292V67.2042C54.2959 68.1866 54.6862 69.1287 55.3808 69.8234C56.0755 70.5181 57.0177 70.9083 58.0001 70.9083C58.9825 70.9083 59.9246 70.5181 60.6193 69.8234C61.314 69.1287 61.7042 68.1866 61.7042 67.2042V66.3437C61.7062 65.8561 61.6118 65.3728 61.4265 64.9217C61.2412 64.4707 60.9686 64.0606 60.6245 63.7151C60.2803 63.3696 59.8713 63.0954 59.421 62.9084C58.9706 62.7213 58.4877 62.625 58.0001 62.625Z" fill="#EBCB00"/>
    <path d="M54.2959 62.625H61.7188V74.2042H54.2959V62.625Z" stroke="#45413C" stroke-width="0.5" stroke-linecap="round" stroke-linejoin="round"/>
    <path d="M36.8546 65.4683L32.2171 64.5787C31.8931 64.5115 31.607 64.3232 31.4172 64.0521C31.2275 63.7811 31.1484 63.4478 31.1962 63.1204C31.2634 62.7964 31.4518 62.5103 31.7228 62.3206C31.9939 62.1308 32.3272 62.0518 32.6546 62.0995L39.0421 63.2516L36.8546 65.4683Z" fill="#FFE500" stroke="#45413C" stroke-width="0.5" stroke-linecap="round" stroke-linejoin="round"/>
    <path d="M27.8129 63.7337L33.7921 64.8858C34.4655 64.2029 35.2968 63.6967 36.2126 63.4118C37.1283 63.1269 38.1001 63.0722 39.0421 63.2524C39.7497 63.3936 40.3732 63.8081 40.7772 64.406C41.1813 65.0039 41.3333 65.7369 41.2004 66.4462C41.0592 67.1539 40.6447 67.7773 40.0469 68.1814C39.449 68.5854 38.7159 68.7375 38.0066 68.6045L27.2733 66.5483C26.9033 66.4707 26.5779 66.2525 26.3657 65.9396C26.1535 65.6267 26.0711 65.2437 26.1358 64.8712C26.2134 64.5012 26.4316 64.1758 26.7445 63.9636C27.0574 63.7514 27.4404 63.6689 27.8129 63.7337Z" fill="#FFE500" stroke="#45413C" stroke-width="0.5" stroke-linecap="round" stroke-linejoin="round"/>
    <path d="M79.1465 65.4683L83.784 64.5787C84.108 64.5115 84.3941 64.3232 84.5838 64.0521C84.7735 63.7811 84.8526 63.4478 84.8048 63.1204C84.7377 62.7964 84.5493 62.5103 84.2782 62.3206C84.0072 62.1308 83.6739 62.0518 83.3465 62.0995L76.959 63.2516L79.1465 65.4683Z" fill="#FFE500" stroke="#45413C" stroke-width="0.5" stroke-linecap="round" stroke-linejoin="round"/>
    <path d="M88.1883 63.7337L82.2092 64.8858C81.5358 64.2029 80.7044 63.6967 79.7887 63.4118C78.8729 63.1269 77.9011 63.0722 76.9592 63.2524C76.2515 63.3936 75.628 63.8081 75.224 64.406C74.82 65.0039 74.6679 65.7369 74.8008 66.4462C74.942 67.1539 75.3565 67.7773 75.9544 68.1814C76.5523 68.5854 77.2853 68.7375 77.9946 68.6045L88.6842 66.5483C89.0542 66.4707 89.3796 66.2525 89.5918 65.9396C89.804 65.6267 89.8864 65.2437 89.8217 64.8712C89.7442 64.51 89.5324 64.1916 89.2292 63.9805C88.9261 63.7693 88.554 63.6811 88.1883 63.7337Z" fill="#FFE500" stroke="#45413C" stroke-width="0.5" stroke-linecap="round" stroke-linejoin="round"/>
    <path d="M42.498 78.1406L43.6355 84.076" stroke="#45413C" stroke-width="0.5" stroke-linecap="round" stroke-linejoin="round"/>
    <path d="M73.5027 78.1406L72.3652 84.076" stroke="#45413C" stroke-width="0.5" stroke-linecap="round" stroke-linejoin="round"/>
    <path d="M58.0005 33.0781C56.8002 33.0792 55.6047 33.2311 54.4422 33.5302C51.7297 34.1427 48.2005 35.1635 45.0068 34.551C44.8823 35.3736 44.9268 36.2129 45.1374 37.0178C45.348 37.8226 45.7204 38.5761 46.2318 39.2323C44.5679 41.6304 43.6774 44.4801 43.6797 47.399V54.8948H72.3214V47.399C72.3214 43.6008 70.8126 39.9583 68.1269 37.2726C65.4412 34.5869 61.7986 33.0781 58.0005 33.0781Z" fill="#724F3D"/>
    <path d="M58.0005 33.0781C56.8002 33.0792 55.6047 33.2311 54.4422 33.5302C51.7297 34.1427 48.2005 35.1635 45.0068 34.551C44.8093 36.0808 45.1607 37.631 45.9984 38.926C48.855 38.9706 51.7019 38.5821 54.4422 37.774C56.5574 37.2284 58.7694 37.1745 60.9087 37.6163C63.0479 38.0581 65.0576 38.9839 66.7836 40.3228C68.5096 41.6616 69.9061 43.378 70.866 45.3402C71.8259 47.3023 72.3238 49.4583 72.3214 51.6427V47.399C72.3214 43.6008 70.8126 39.9583 68.1269 37.2726C65.4412 34.5869 61.7986 33.0781 58.0005 33.0781Z" fill="#A86C4D"/>
    <path d="M58.0005 33.0781C56.8002 33.0792 55.6047 33.2311 54.4422 33.5302C51.7297 34.1427 48.2005 35.1635 45.0068 34.551C44.8823 35.3736 44.9268 36.2129 45.1374 37.0178C45.348 37.8226 45.7204 38.5761 46.2318 39.2323C44.5679 41.6304 43.6774 44.4801 43.6797 47.399V54.8948H72.3214V47.399C72.3214 43.6008 70.8126 39.9583 68.1269 37.2726C65.4412 34.5869 61.7986 33.0781 58.0005 33.0781V33.0781Z" stroke="#45413C" stroke-width="0.5" stroke-linecap="round" stroke-linejoin="round"/>
    <path d="M73.8525 53.7995C73.7816 53.264 73.5499 52.7626 73.1879 52.3616C72.826 51.9606 72.3509 51.6789 71.8254 51.5536L70.965 51.3203C70.331 51.1413 69.7735 50.7588 69.3782 50.2317C68.9829 49.7047 68.7719 49.0624 68.7775 48.4036V45.4286C68.7759 44.8273 68.5766 44.2431 68.2103 43.7661C67.844 43.2891 67.331 42.9458 66.7504 42.7891C63.9695 43.8992 60.9941 44.4397 58.0004 44.3786C55.0067 44.4397 52.0313 43.8992 49.2504 42.7891C48.6671 42.9431 48.1508 43.2852 47.7817 43.7625C47.4126 44.2397 47.2112 44.8253 47.2087 45.4286V48.4328C47.2143 49.0916 47.0033 49.7339 46.608 50.2609C46.2127 50.7879 45.6552 51.1704 45.0212 51.3495L44.1608 51.5828C43.6353 51.708 43.1602 51.9897 42.7983 52.3907C42.4364 52.7917 42.2046 53.2931 42.1337 53.8286C42.0948 54.1978 42.1341 54.5711 42.2492 54.924C42.3643 55.277 42.5525 55.6017 42.8016 55.877C43.0507 56.1522 43.3551 56.3718 43.6948 56.5215C44.0346 56.6711 44.4021 56.7474 44.7733 56.7453H44.9337C45.275 59.9691 46.7972 62.9525 49.2071 65.1208C51.617 67.289 54.744 68.4887 57.9858 68.4887C61.2276 68.4887 64.3547 67.289 66.7646 65.1208C69.1745 62.9525 70.6967 59.9691 71.0379 56.7453H71.1983C71.5735 56.7499 71.9454 56.6745 72.2891 56.524C72.6329 56.3736 72.9406 56.1516 73.1918 55.8728C73.4429 55.594 73.6318 55.2649 73.7457 54.9074C73.8596 54.5499 73.896 54.1722 73.8525 53.7995Z" fill="#FFE500" stroke="#45413C" stroke-width="0.5" stroke-linecap="round" stroke-linejoin="round"/>
    <path d="M50.0821 53.4941C50.0821 53.7162 50.148 53.9333 50.2714 54.118C50.3948 54.3026 50.5701 54.4466 50.7753 54.5315C50.9805 54.6165 51.2063 54.6388 51.4241 54.5954C51.6419 54.5521 51.842 54.4452 51.9991 54.2881C52.1561 54.1311 52.2631 53.931 52.3064 53.7132C52.3497 53.4954 52.3275 53.2696 52.2425 53.0644C52.1575 52.8592 52.0136 52.6838 51.8289 52.5604C51.6442 52.437 51.4271 52.3712 51.205 52.3712C51.057 52.3692 50.9101 52.3969 50.773 52.4527C50.6359 52.5084 50.5113 52.5911 50.4067 52.6957C50.302 52.8004 50.2193 52.925 50.1636 53.0621C50.1079 53.1992 50.0802 53.3461 50.0821 53.4941Z" fill="#45413C" stroke="#45413C" stroke-width="0.5" stroke-linecap="round" stroke-linejoin="round"/>
    <path d="M65.9187 53.4941C65.9187 53.7162 65.8528 53.9333 65.7294 54.118C65.6061 54.3026 65.4307 54.4466 65.2255 54.5315C65.0203 54.6165 64.7945 54.6388 64.5767 54.5954C64.3589 54.5521 64.1588 54.4452 64.0017 54.2881C63.8447 54.1311 63.7378 53.931 63.6944 53.7132C63.6511 53.4954 63.6733 53.2696 63.7583 53.0644C63.8433 52.8592 63.9872 52.6838 64.1719 52.5604C64.3566 52.437 64.5737 52.3712 64.7958 52.3712C64.9438 52.3692 65.0907 52.3969 65.2278 52.4527C65.3649 52.5084 65.4895 52.5911 65.5942 52.6957C65.6988 52.8004 65.7815 52.925 65.8372 53.0621C65.8929 53.1992 65.9206 53.3461 65.9187 53.4941Z" fill="#45413C" stroke="#45413C" stroke-width="0.5" stroke-linecap="round" stroke-linejoin="round"/>
    <path d="M47.8799 58.2773C47.8799 58.5094 48.0335 58.732 48.307 58.8961C48.5805 59.0602 48.9514 59.1523 49.3382 59.1523C49.725 59.1523 50.0959 59.0602 50.3694 58.8961C50.6429 58.732 50.7965 58.5094 50.7965 58.2773C50.7965 58.0453 50.6429 57.8227 50.3694 57.6586C50.0959 57.4945 49.725 57.4023 49.3382 57.4023C48.9514 57.4023 48.5805 57.4945 48.307 57.6586C48.0335 57.8227 47.8799 58.0453 47.8799 58.2773Z" fill="#FFAA54"/>
    <path d="M65.2041 58.2773C65.2041 58.5094 65.3577 58.732 65.6312 58.8961C65.9047 59.0602 66.2757 59.1523 66.6624 59.1523C67.0492 59.1523 67.4201 59.0602 67.6936 58.8961C67.9671 58.732 68.1208 58.5094 68.1208 58.2773C68.1208 58.0453 67.9671 57.8227 67.6936 57.6586C67.4201 57.4945 67.0492 57.4023 66.6624 57.4023C66.2757 57.4023 65.9047 57.4945 65.6312 57.6586C65.3577 57.8227 65.2041 58.0453 65.2041 58.2773Z" fill="#FFAA54"/>
    <path d="M61.7042 63.5873C61.7042 64.8414 60.0563 65.1185 58.0001 65.1185C55.9438 65.1185 54.2959 64.8414 54.2959 63.5873C54.4806 62.7423 54.9487 61.9859 55.6225 61.4435C56.2962 60.9012 57.1351 60.6055 58.0001 60.6055C58.865 60.6055 59.7039 60.9012 60.3777 61.4435C61.0514 61.9859 61.5195 62.7423 61.7042 63.5873Z" fill="#FF6242"/>
    <path d="M61.2232 64.5033C60.854 63.9942 60.3694 63.5798 59.8092 63.2941C59.249 63.0083 58.6291 62.8594 58.0003 62.8594C57.3714 62.8594 56.7515 63.0083 56.1913 63.2941C55.6311 63.5798 55.1465 63.9942 54.7773 64.5033C55.7709 65.0116 56.8895 65.2241 58.0003 65.1158C59.111 65.2241 60.2296 65.0116 61.2232 64.5033Z" fill="#FFA694"/>
    <path d="M61.7042 63.5873C61.7042 64.8414 60.0563 65.1185 58.0001 65.1185C55.9438 65.1185 54.2959 64.8414 54.2959 63.5873C54.4806 62.7423 54.9487 61.9859 55.6225 61.4435C56.2962 60.9012 57.1351 60.6055 58.0001 60.6055C58.865 60.6055 59.7039 60.9012 60.3777 61.4435C61.0514 61.9859 61.5195 62.7423 61.7042 63.5873Z" stroke="#45413C" stroke-width="0.5" stroke-linecap="round" stroke-linejoin="round"/>
    </svg>
    