<svg xmlns="http://www.w3.org/2000/svg" width="53" height="54" viewBox="0 0 53 54">
  <g id="Group_628" data-name="Group 628" transform="translate(-40 -91)">
    <rect id="Rectangle_576" data-name="Rectangle 576" width="53" height="54" rx="15" transform="translate(40 91)" fill="#44dd91"/>
    <path id="Icon_awesome-check" data-name="Icon awesome-check" d="M10.416,27,.449,17.03a1.533,1.533,0,0,1,0-2.168l2.168-2.168a1.533,1.533,0,0,1,2.168,0L11.5,19.407,25.881,5.026a1.533,1.533,0,0,1,2.168,0l2.168,2.168a1.533,1.533,0,0,1,0,2.168L12.584,27A1.533,1.533,0,0,1,10.416,27Z" transform="translate(51.667 102.411)" fill="#f7f7f7"/>
  </g>
</svg>
